<svg viewBox="0 0 144.45 144.54" xmlns="http://www.w3.org/2000/svg">
 <g transform="translate(-7.8844 -40.72)">
  <g stroke-width=".28222">
   <path d="m79.11 123.48c-1.2614-0.30513-2.0772-0.89321-2.7677-1.9952-0.58442-0.93263-0.62359-1.358-0.70178-7.62-0.08043-6.4412-0.06417-6.6687 0.56444-7.8999 0.70345-1.3778 2.1793-2.5423 3.2221-2.5423h0.65691l0.07746 10.16c0.04261 5.5881 0.01397 10.147-0.06364 10.131-0.07761-0.016-0.52211-0.12117-0.98778-0.23382zm5.3418-9.8974c0-3.4925 0.04051-4.9212 0.09003-3.175 0.04951 1.7462 0.04951 4.6038 0 6.35-0.04952 1.7462-0.09003 0.3175-0.09003-3.175zm-51.699-9.0296c-1.4971-0.91279-2.0921-2.1278-1.9705-4.0235 0.0846-1.3184 0.25495-1.7805 0.90751-2.4616 1.1768-1.2283 13.076-7.3455 14.288-7.3449 2.3506 0.0011 4.2052 1.9027 4.2052 4.3119 0 2.436-0.49736 2.9109-6.1421 5.8651-2.7531 1.4409-5.6903 2.9789-6.5271 3.4178-1.8224 0.956-3.4468 1.0362-4.7606 0.23516zm90.104 2e-3c-0.0989-0.15999 0.0144-0.2073 0.26556-0.11092 0.48893 0.18762 0.57839 0.38991 0.17243 0.38991-0.14606 0-0.34316-0.12555-0.43799-0.27899zm5.2191-0.392c0-0.0586 0.22225-0.28085 0.49389-0.49389 0.44762-0.35105 0.4576-0.34106 0.10655 0.10656-0.36868 0.47011-0.60044 0.61961-0.60044 0.38733zm1.4766-3.2801c0-0.54328 0.0581-0.76553 0.12906-0.49389 0.071 0.27164 0.071 0.71614 0 0.98778s-0.12906 0.0494-0.12906-0.49389zm-18.714-3.0339-0.68419-0.77611 0.77611 0.68419c0.72539 0.63948 0.90554 0.86803 0.68419 0.86803-0.0506 0-0.3998-0.34925-0.77611-0.77611zm17.351-0.14111-0.53763-0.635 0.635 0.53763c0.59674 0.50524 0.76347 0.73237 0.53763 0.73237-0.0536 0-0.33931-0.28575-0.635-0.635zm-18.388-2.6106c3e-3 -0.62089 0.0609-0.84166 0.12843-0.4906 0.0675 0.35106 0.0649 0.85906-6e-3 1.1289-0.0706 0.26983-0.12587-0.01741-0.12274-0.63829zm0.77549-2.7877c0-0.0586 0.22225-0.28085 0.49389-0.49389 0.44762-0.35105 0.4576-0.34106 0.10656 0.10656-0.36869 0.47011-0.60045 0.61961-0.60045 0.38733z" fill="#bcb8b1"/>
   <path d="m80.098 113.47c0-7.5576 0.08299-10.054 0.33423-10.054 0.92631 0 2.7124 1.211 3.2827 2.2257 0.5859 1.0425 0.61638 1.43 0.61596 7.8316-2.82e-4 5.8542-0.06497 6.8614-0.49389 7.7026-0.59457 1.166-1.5837 1.9263-2.8218 2.1687l-0.91722 0.17965zm38.1-11.501c-3.372-1.7393-6.4982-3.5487-7.0365-4.0726-0.83989-0.8173-0.98397-1.1604-1.0833-2.5798-0.0959-1.3699-7e-3 -1.7937 0.5454-2.5962 0.79868-1.1607 2.296-2.0042 3.5574-2.0042 0.62649 0 2.7495 0.93706 6.4955 2.867 3.0606 1.5768 6.0457 3.1688 6.6334 3.5378 2.9564 1.8558 2.9087 5.9894-0.0864 7.4942-1.8147 0.91171-2.5406 0.69887-9.0255-2.6462zm-34.202-32.33c0.20373-0.08153 0.44715-0.0715 0.54093 0.02227 0.09378 0.09378-0.07291 0.16048-0.37042 0.14823-0.32878-0.01355-0.39565-0.08042-0.17051-0.17051z" fill="#8a817c"/>
   <path d="m8.8427 165.68c-0.37071-0.37071-0.75287-1.101-0.84924-1.6228-0.09637-0.52181-0.13654-4.5885-0.089259-9.037l0.08596-8.0882 0.87168-1.084c2.6119-3.248 12.233-6.5646 19.096-6.5824l1.905-5e-3v27.093h-20.346zm100.54-0.0355c-0.39026-0.39026-0.78857-1.1046-0.88515-1.5875-0.30091-1.5046-0.19454-15.544 0.12654-16.701 0.44601-1.6062 2.1522-3.1133 5.1214-4.5239 4.3769-2.0794 8.7687-3.1965 13.697-3.484l2.8928-0.16872v27.174h-20.243zm-84.74-28.472c-1.718-0.54335-2.7162-1.1385-3.9076-2.3299-2.6172-2.6171-3.1046-4.5878-2.9617-11.976 0.09463-4.8933 0.14312-5.287 0.83123-6.7487 0.95628-2.0313 2.7416-3.8266 4.7243-4.7506 1.246-0.58071 2.1377-0.76646 4.0655-0.84691l2.4694-0.10306v27.15l-2.0461-0.0189c-1.1254-0.0104-2.5541-0.17954-3.175-0.3759zm100.44-0.0264c-2.7134-0.85652-5.0376-3.0625-6.0743-5.7654-0.49171-1.282-0.62955-2.3875-0.74176-5.9491-0.2252-7.1475 0.48474-9.8826 3.2323-12.453 1.8327-1.7143 3.9566-2.5052 6.7273-2.5052h2.1061v27.093l-2.0461-0.0279c-1.1254-0.0154-2.5669-0.1923-3.2035-0.39323z" fill="#fecf52"/>
   <path d="m59.778 184.9c-0.38806-0.19391-0.92761-0.79528-1.199-1.3364-0.4348-0.86693-0.4935-1.9292-0.49389-8.9383-2.71e-4 -4.9351 0.1135-8.256 0.29974-8.7489 1.388-3.6737 9.7716-7.0781 19.385-7.8718l2.3283-0.19223v27.448l-9.8072-4e-3c-7.2705-3e-3 -9.9897-0.0954-10.513-0.3567zm16.293-28.719c-3.1493-0.52976-6.1602-2.9419-7.2829-5.8346-0.54017-1.3918-0.65302-2.331-0.76207-6.3427-0.08031-2.9546-0.0033-5.4253 0.2068-6.6316 0.85558-4.9132 4.2888-7.8808 9.4928-8.2054l2.3722-0.148v27.455l-1.3406-0.0332c-0.73731-0.0183-1.9462-0.13507-2.6863-0.25957z" fill="#00bbf5"/>
   <path d="m29.862 152.77v-13.58l2.4694 0.19954c7.178 0.58003 14.789 3.0571 17.664 5.7492 1.5876 1.4864 1.5981 1.5579 1.5913 10.826-0.0056 7.6759-0.05619 8.6129-0.49389 9.1532-0.96647 1.1931-1.3328 1.2325-11.476 1.2325h-9.7552zm100.75 0v-13.58l2.4694 0.1948c9.1658 0.72304 17.98 4.4426 18.97 8.0048 0.37974 1.3672 0.37833 15.392-2e-3 16.76-0.15971 0.57503-0.62063 1.3053-1.0243 1.6228-0.70744 0.55649-1.0883 0.57728-10.574 0.57728h-9.8394zm-100.75-28.793v-13.586l2.3722 0.148c4.0354 0.25176 7.0033 2.1743 8.6078 5.576 0.7048 1.4942 0.73538 1.7746 0.81788 7.4984 0.08014 5.5602 0.04522 6.0543-0.5379 7.6129-0.7386 1.9741-2.7525 4.242-4.5754 5.1523-1.4047 0.70156-3.6302 1.1853-5.4532 1.1853h-1.2315zm100.75 0.0409v-13.628l2.2862 0.1567c4.1511 0.28452 7.3491 2.5063 8.7679 6.0913 0.57657 1.4569 0.63189 2.0782 0.64442 7.2382 0.0153 6.3112-0.19766 7.3907-1.9211 9.7367-1.7565 2.391-4.0669 3.5512-7.68 3.8566l-2.0975 0.1773z" fill="#fe9e00"/>
   <path d="m60.076 96.716c-0.22401-0.08438-0.70375-0.44986-1.0661-0.81218l-0.65877-0.65877-0.0014-8.7699c-0.0014-8.4043 0.02342-8.8134 0.59378-9.8123 0.55169-0.96631 2.4818-2.5946 3.0756-2.5946 0.14206 0 0.45566-0.19737 0.69689-0.4386 0.24123-0.24123 0.68041-0.48516 0.97596-0.54208 0.29555-0.05692 0.774-0.23128 1.0632-0.38747 0.48367-0.2612 1.3515-0.61431 1.8664-0.75942 0.11642-0.03281 0.27517-0.0914 0.35278-0.13021 0.07761-0.03881 0.23636-0.08837 0.35278-0.11015 0.11642-0.02179 0.37042-0.1404 0.56444-0.2636 0.19403-0.1232 0.35278-0.16187 0.35278-0.08593 0 0.07593 0.41275 0.01298 0.91722-0.13993 1.6114-0.48838 2.7692-0.75812 4.1628-0.96982 2.5426-0.38625 3.0861-0.44346 4.8683-0.51249l1.905-0.07378v27.286l-9.8072-0.03585c-5.394-0.01973-9.9905-0.10488-10.215-0.18926zm17.105-28.757c-0.02579-0.02259-0.4914-0.10832-1.0347-0.19052-2.6669-0.40353-4.1094-1.3005-6.4247-3.9948-0.31024-0.36103-0.92618-1.7141-0.96673-2.1236-0.0077-0.07761-0.13404-0.45691-0.28079-0.84289-0.38546-1.0138-0.32705-12.71 0.0659-13.198 0.03128-0.03881 0.07848-0.16581 0.1049-0.28222 0.02642-0.11642 0.3282-0.74666 0.67062-1.4005 1.5452-2.9507 4.7388-4.8443 8.5569-5.0736l2.225-0.13364v27.085l-1.4348 0.09779c-0.78912 0.05379-1.4559 0.07931-1.4817 0.05673z" fill="#00bbf5"/>
   <path d="m80.098 171.6v-13.661l1.7639 0.1238c8.6034 0.60381 17.175 3.6418 19.324 6.8494 0.63461 0.94686 0.64272 1.0702 0.64272 9.7687v8.8098l-0.70956 0.70956c-0.39026 0.39026-1.1046 0.78858-1.5875 0.88515-0.48286 0.0966-5.0531 0.17559-10.156 0.17559h-9.2781zm0-28.991v-13.583l2.3283 0.19444c4.0978 0.34221 7.0948 2.2566 8.6465 5.5229 0.71368 1.5023 0.74014 1.748 0.82283 7.6402 0.10466 7.4572-0.14287 8.4486-2.7509 11.018-2.0499 2.0194-3.9687 2.7909-6.9407 2.7909h-2.1061z" fill="#00799e"/>
   <path d="m80.098 83.278v-13.65l2.0461 0.1244c8.2357 0.5007 17.184 3.7447 19.129 6.9349 0.51918 0.8515 0.55412 1.4614 0.55511 9.6896l1e-3 8.781-0.70957 0.70957c-0.39026 0.39026-1.1046 0.78858-1.5875 0.88515-0.48294 0.09657-5.0531 0.17559-10.156 0.17559h-9.2781zm0-28.965v-13.547l1.0583 0.0016c4.5546 7e-3 8.0237 1.93 9.9022 5.4888 0.73832 1.3988 0.75322 1.5341 0.841 7.6426 0.08367 5.8227 0.05 6.3258-0.529 7.9022-0.45448 1.2374-1.0444 2.1033-2.2258 3.2671-2.0499 2.0194-3.9687 2.7909-6.9407 2.7909h-2.1061z" fill="#007a9f"/>
  </g>
 </g>
</svg>
