<svg viewBox="0 0 60.809 66.396" xmlns="http://www.w3.org/2000/svg">
 <g transform="translate(-60.643 -75.004)">
  <g stroke-width=".26458">
   <path d="m75.923 133.01-15.28-8.3713v-16.585c0-14.419 0.05182-16.628 0.39688-16.914 0.21828-0.18116 0.39688-0.22465 0.39688-0.09665 0 0.128 6.6659 3.564 14.813 7.6355l14.813 7.4027 0.06979 17.665c0.03839 9.7156 0.06979 17.658 0.06979 17.65 0-8e-3 -6.8759-3.782-15.28-8.3862z" fill="#5aaae7"/>
   <path d="m76.145 98.498c-8.1215-4.0613-14.724-7.4217-14.671-7.4676 0.38215-0.33484 29.36-16.026 29.596-16.026 0.23619 0 29.214 15.691 29.596 16.026 0.10227 0.0896-24.787 12.584-27.89 14l-1.8653 0.85161z" fill="#96c8ef"/>
   <path d="m91.07 123.58v-17.526l14.883-7.3309c8.1855-4.032 15.033-7.328 15.216-7.3244 0.26437 0.0052 0.31872 3.4104 0.26459 16.575l-0.0681 16.569-30.295 16.565z" fill="#1e80cd"/>
  </g>
 </g>
</svg>
