<svg viewBox="0 0 24.032 16.702" xmlns="http://www.w3.org/2000/svg">
 <defs>
  <style>.cls-1{fill:#fefefe;}.cls-2{fill:#464646;}</style>
 </defs>
 <g transform="translate(8.1741 7.1464)">
  <g transform="matrix(.07966 0 0 .07966 -18.484 16.413)" data-name="Layer 1">
   <path class="cls-2" d="m277.84-100.34h-118.48c-7.25 0-7.4-0.12-7.4-7.15q0-80.24 0-160.47c0-6.95 0.7-7.62 7.85-7.62h236c7.1 0 8.33 1.27 8.34 8.53q0 79.49 0 159c0 7-0.79 7.74-7.78 7.74zm-116.26-165.14v155.35h232.26v-155.35z"/>
   <path class="cls-2" d="m248.72-155.29c8.14-11 16-21.64 23.84-32.27 7.26-9.85 14.29-19.87 21.79-29.53 6.33-8.16 12.7-7.68 18.82 0.64q29.1 39.54 58.33 79c4.88 6.62 9.63 13.33 14.91 20.66h-217.27c5.48-7.63 10.6-14.86 15.83-22 9-12.29 18.33-24.32 27-36.83 6.65-9.62 15.48-9.35 21.39-0.33 2.36 3.6 4.95 7.05 7.52 10.51 2.46 3.29 5.02 6.5 7.84 10.15z"/>
   <path class="cls-2" d="m192.87-249.65c12.32 0.82 17.84 8.54 18 18.4 0.27 10.2-8.89 18.68-18.73 18.68-8.91 0-18-9.75-18-19.16 0.06-9.79 8.65-18.01 18.73-17.92z"/>
  </g>
 </g>
</svg>
