<svg viewBox="0 0 67.666 67.722" xmlns="http://www.w3.org/2000/svg">
 <g transform="translate(-72.016 -118.1)">
  <g stroke-width=".35278">
   <path d="m128.11 156.02v-3.7042h-19.403v-10.231h19.403v-3.7042c0-2.0373 0.11906-3.6917 0.26458-3.6764 0.33712 0.0354 11.136 11.772 11.309 12.292 0.11164 0.33493-11.009 12.728-11.421 12.728-0.084 0-0.15271-1.6669-0.15271-3.7042z" fill="#a88366"/>
   <path d="m88.438 181.06-9.8599-4.7508h-2.6972c-2.165 0-2.8124-0.1273-3.2811-0.64514-0.5329-0.58885-0.58384-3.0772-0.58384-28.52 0-26.557 0.03051-27.903 0.64514-28.459 0.58629-0.53059 2.7238-0.58384 23.435-0.58384 20.247 0 22.851 0.0618 23.344 0.55437 0.47091 0.4709 0.55437 1.7417 0.55437 8.4415 0 8.7556-0.0605 8.9958-2.2636 8.9958-2.1476 0-2.3225-0.55328-2.3225-7.3479v-6.0576l-35.454 0.0396 4.9389 2.3694c2.7164 1.3032 6.9612 3.3183 9.4328 4.4782l4.494 2.1088 8e-3 40.04h16.581v-5.9972c0-5.5269 0.0553-6.0526 0.70555-6.7028 0.88147-0.88147 2.5264-0.91162 3.2967-0.0604 0.50606 0.55919 0.58385 1.6799 0.58385 8.412 0 7.0764-0.0574 7.8188-0.64514 8.3507-0.56817 0.51418-1.8308 0.58384-10.583 0.58384h-9.9382v4.7625c0 2.6194-0.11906 4.7572-0.26458 4.7508-0.14552-6e-3 -4.7015-2.1495-10.125-4.7625z" fill="#6b574b"/>
  </g>
 </g>
</svg>
