<svg viewBox="0 0 134.8 118.69" xmlns="http://www.w3.org/2000/svg">
 <g transform="translate(-46.218 -78.219)">
  <g fill="#d60000">
   <path d="m110.07 195.15c-11.699-6.4887-23.372-14.577-32.802-22.73-4.6553-4.0245-12.366-11.93-15.73-16.126-11.284-14.079-16.454-28.596-15.111-42.431 1.0455-10.768 4.2565-18.851 10.304-25.939 1.4358-1.6826 5.1299-4.6034 7.4959-5.9265 7.9426-4.4417 18.656-5.0124 27.502-1.4648 3.2208 1.2918 6.457 3.079 9.2651 5.1168 2.7787 2.0164 7.8359 7.0354 9.8849 9.8101 0.86801 1.1755 1.8461 2.4852 2.1735 2.9104l0.59531 0.77321 0.59531-0.77321c0.32742-0.42526 1.3024-1.735 2.1665-2.9104 2.017-2.7436 7.0886-7.771 9.8964-9.8101 7.0634-5.1297 13.637-7.371 21.605-7.3658 7.858 0.0051 13.845 2.092 19.683 6.8617 10.191 8.3251 15.44 25.408 12.715 41.382-2.4642 14.448-11.73 28.98-27.769 43.55-7.1055 6.4548-12.569 10.71-20.769 16.177-7.0502 4.7-17.178 10.652-18.124 10.652-0.22509 0-1.8352-0.79089-3.5781-1.7575z" fill="#d60000" stroke-width=".26458"/>
  </g>
 </g>
</svg>
