<svg viewBox="0 0 104.92 104.96" xmlns="http://www.w3.org/2000/svg">
 <g transform="translate(-48.603 -79.735)">
  <g stroke-width=".26458">
   <path d="m94.86 184.44c-7.2507-1.1796-12.591-2.7798-17.278-5.1773-7.3673-3.7684-13.268-8.6577-18.326-15.184-2.356-3.0399-3.9245-5.6353-5.8223-9.6339-2.0002-4.2144-2.9504-7.0373-3.9673-11.786-0.60559-2.8282-0.72327-4.1193-0.83083-9.1157-0.13698-6.3627 0.14969-9.2989 1.3897-14.235 1.0473-4.1686 3.6088-10.447 5.5268-13.546 0.89166-1.4408 3.7007-5.5444 4.2455-6.2019 5.3371-6.4416 11.042-11.011 17.997-14.416 7.1811-3.5154 13.347-5.0766 21.179-5.3628 8.9369-0.32647 16.62 1.2554 24.594 5.0639 4.4246 2.1133 7.1351 3.8588 11.487 7.3975 1.1403 0.92726 5.3835 5.2385 6.4441 6.5474 8.7316 10.776 12.986 24.242 11.849 37.509-0.41417 4.8351-1.7267 11.026-2.8936 13.648-0.1295 0.29104-0.74146 1.7198-1.3599 3.175-1.5355 3.6132-3.9616 7.9309-5.7235 10.186-1.78 2.2786-4.5856 5.463-5.9484 6.7513-8.3243 7.8696-18.287 12.667-29.66 14.284-2.9838 0.42416-10.539 0.48043-12.902 0.0961zm12.303-12.694c1.6007-0.29771 3.1188-0.5576 3.3734-0.57755 0.25466-0.0199 0.46302-0.12035 0.46302-0.22312 0-0.14789 0.99408-0.47916 1.8521-0.6172 0.0728-0.0117 1.442-0.66241 3.0427-1.446 1.6007-0.7836 2.9997-1.4058 3.1088-1.3827 0.10915 0.0231 0.19844-0.0668 0.19844-0.19987 0-0.13304 0.58476-0.60169 1.2994-1.0414 1.2348-0.75977 4.1884-3.1297 5.5496-4.4529 0.34727-0.33756 0.80078-0.61375 1.0078-0.61375 0.20703 0 0.31367-0.10152 0.23698-0.22561-0.0767-0.12408 0.0442-0.4515 0.26859-0.7276 0.22441-0.2761 0.32057-0.32341 0.21369-0.10512-0.11423 0.23329-0.0951 0.30599 0.0465 0.17638 0.13247-0.12126 0.24085-0.30403 0.24085-0.40614s0.40188-0.65774 0.89307-1.2347c0.49119-0.57699 0.79952-0.87047 0.68519-0.65219-0.12288 0.23459-0.1094 0.30672 0.033 0.17639 0.13247-0.12127 0.24212-0.29986 0.24365-0.39688 2e-3 -0.097 0.87002-1.4706 1.93-3.0523 3.4655-5.1717 6.4674-12.358 7.608-18.212l0.44866-2.3029-0.63767-0.75783c-0.53707-0.63827-0.82934-0.75516-1.8526-0.74089-0.93576 0.013-1.1818 0.10316-1.0709 0.39216 0.0932 0.24282 0.0325 0.30628-0.17212 0.17986-0.17385-0.10745-0.28914-0.0972-0.25619 0.0228 0.0656 0.23894-0.77682 4.2102-1.0285 4.8483-0.0861 0.21828-0.18542 0.53121-0.22073 0.69539-0.49226 2.2893-2.8553 8.3484-3.3233 8.5215-0.13201 0.0488-0.17273 0.19764-0.0905 0.33073 0.0823 0.13309 4e-3 0.24199-0.17474 0.24199-0.17836 0-0.24909 0.0752-0.15717 0.16712 0.14474 0.14474-0.98515 2.3754-1.3896 2.7433-0.08 0.0728-0.3131 0.4577-0.51804 0.85543s-0.62147 0.99074-0.92562 1.3178-0.52212 0.68958-0.48439 0.80558c0.0377 0.116-0.1111 0.27986-0.33073 0.36414-0.21963 0.0843-0.39933 0.31405-0.39933 0.51059 0 0.55468-5.7234 6.2921-6.0657 6.0805-0.1636-0.1011-0.26474-0.0715-0.22475 0.0658 0.089 0.30567-2.7162 2.4602-2.9861 2.2934-0.10619-0.0656-0.26424 0.0661-0.35122 0.2928-0.087 0.22667-0.27805 0.33802-0.4246 0.24745-0.14655-0.0906-0.26645-0.042-0.26645 0.10794 0 0.32373-4.2033 2.4044-4.8573 2.4044-0.24915 0-0.71671 0.16742-1.039 0.37205-0.3223 0.20462-1.6576 0.64909-2.9672 0.98771-2.0641 0.53366-2.9803 0.61255-6.8792 0.59229-3.9644-0.0206-4.7968-0.10444-7.0177-0.70672-1.3859-0.37583-3.5034-1.0982-4.7056-1.6052-1.9574-0.82554-5.8874-3.105-6.9298-4.0195-0.21828-0.19149-0.89587-0.80252-1.5058-1.3578-0.60989-0.55533-1.5322-1.3492-2.0496-1.7641-0.51738-0.41491-0.8632-0.87979-0.76847-1.0331 0.09801-0.15858 0.04631-0.20086-0.11996-0.0981-0.1607 0.0993-0.40923-0.0381-0.55228-0.30539s-0.8026-1.0743-1.4657-1.7934c-0.66306-0.71905-1.2068-1.3953-1.2084-1.5028-0.0016-0.10748-0.21118-0.43876-0.46584-0.73619-0.25466-0.29742-0.46302-0.62899-0.46302-0.73683s-0.25591-0.47076-0.5687-0.8065c-1.4146-1.5184-5.3364-10.205-5.0014-11.078 0.07702-0.20072 0.02236-0.29221-0.12151-0.2033-0.14385 0.0889-0.26155-0.024-0.26155-0.25084 0-0.66682-0.03257-0.79439-0.27843-1.0906-0.12839-0.1547-0.28999-0.69048-0.35911-1.1906-0.06912-0.50015-0.35385-1.71-0.63272-2.6886-0.27887-0.97857-0.46374-1.8225-0.41082-1.8754 0.05292-0.0529-0.37518-0.25179-0.95133-0.44194-0.91707-0.30266-1.1329-0.28979-1.7329 0.10335-1.1477 0.75202-1.2261 1.4126-0.53212 4.4841 0.70004 3.0981 1.8351 6.559 3.1872 9.718 0.49302 1.1519 0.81161 2.0961 0.70799 2.0984-0.10362 2e-3 -0.05953 0.0915 0.09797 0.19844 0.38734 0.26291 2.3022 3.5502 2.3095 3.9647 0.0032 0.1819 0.08486 0.33073 0.18145 0.33073 0.0966 0 0.57222 0.56554 1.0569 1.2568 0.48472 0.69122 1.572 2.1046 2.4162 3.1408 0.84417 1.0362 1.45 1.9689 1.3464 2.0726s-0.01786 0.14882 0.19071 0.10031c0.20857-0.0485 0.54249 0.23923 0.74204 0.63941 0.19956 0.40018 0.54195 0.7276 0.76088 0.7276 0.21893 0 0.32447 0.11907 0.23453 0.26459-0.08994 0.14552-0.03331 0.26458 0.12584 0.26458 0.15915 0 1.1964 0.77391 2.3049 1.7198 1.1086 0.94589 2.1235 1.7198 2.2554 1.7198s0.1785 0.0992 0.10356 0.22049c-0.07495 0.12127 0.0073 0.22615 0.18282 0.23307 0.1755 7e-3 1.3204 0.62208 2.5441 1.367 1.2238 0.74493 2.3321 1.3544 2.463 1.3544 0.13088 0 0.17966 0.0943 0.10839 0.20966-0.07127 0.11532 0.10268 0.22716 0.38654 0.24854 0.28386 0.0214 1.2579 0.33364 2.1645 0.6939 5.6727 2.2542 12.396 2.88 18.582 1.7296zm-22.013-48.577c0.46572-0.24857 0.94136-0.45693 1.057-0.46302 0.11563-6e-3 0.55993-0.54688 0.98734-1.2017 0.4274-0.65484 0.89118-1.3268 1.0306-1.4932 0.13944-0.1664 0.18131-0.37476 0.09304-0.46302-0.08827-0.0883-0.03481-0.16049 0.1188-0.16049 0.15361 0 0.2661-0.14883 0.24998-0.33073-0.01611-0.1819 0.13097-1.0451 0.32685-1.9182 0.4431-1.9751 0.23384-4.8501-0.49412-6.7885-2.057-5.4776-6.9086-6.2388-9.8516-1.5458-0.3194 0.50932-0.6826 0.99648-0.8071 1.0826s-0.19728 0.26469-0.16173 0.39687c0.03555 0.13219-0.07722 0.87128-0.25062 1.6424-0.5967 2.6538-0.31968 5.3367 0.81133 7.8576 0.76737 1.7104 1.1378 2.1549 2.5632 3.0766 1.3814 0.89318 3.0136 1.0096 4.327 0.30864zm35.292 0.14462c0.40966-0.16902 0.86389-0.27816 1.0094-0.24254 0.14552 0.0356 0.19432-5e-3 0.10845-0.0914-0.0859-0.0859 0.29915-0.64931 0.85562-1.2521 1.5261-1.6531 2.1577-3.5517 2.1868-6.5734 0.0256-2.6622-0.12153-4.4973-0.36066-4.4989-0.0794-5.3e-4 -0.36096-0.52775-0.6257-1.1716s-1.0557-1.7078-1.7577-2.3644c-0.70199-0.65662-1.241-1.2308-1.1978-1.2758 0.22491-0.23482-2.5106-0.16352-3.2735 0.0853-0.93995 0.30661-3.5757 2.6876-3.2907 2.9726 0.0921 0.0921 0.0285 0.16736-0.14131 0.16736-0.16977 0-0.28407 0.0893-0.25399 0.19844 0.0301 0.10914-0.17303 0.85328-0.45134 1.6536-0.77668 2.2335-0.67732 5.9651 0.21697 8.1492 0.64222 1.5684 2.2916 4.1573 2.3004 3.6108 2e-3 -0.13906 0.0906-0.12956 0.19844 0.0213 0.60178 0.84177 3.0935 1.1821 4.4766 0.61142z" fill="#fccd43"/>
   <path d="m95.007 171.63c-11.662-2.1931-21.834-10.354-27.819-22.318-1.693-3.3849-3.0407-7.0144-3.9145-10.543-1.0662-4.3051-1.0761-4.4682-0.3201-5.2243 0.36378-0.36378 0.89177-0.66143 1.1733-0.66143 1.1064 0 1.5855 0.83601 2.4261 4.2333 3.4997 14.144 11.893 24.721 23.252 29.301 9.8604 3.976 21.061 2.3544 29.941-4.3348 7.8224-5.8925 13.233-14.699 15.888-25.859 0.47824-2.0106 0.75973-2.7035 1.221-3.0057 0.7751-0.50786 1.7944-0.25245 2.3448 0.58756 0.39472 0.60242 0.38321 0.84425-0.16036 3.3692-1.3345 6.1991-4.4458 13.402-7.8613 18.198-3.7191 5.2231-9.2584 10.186-14.235 12.754-5.4412 2.8074-8.8918 3.6704-15.203 3.8024-3.3505 0.0701-5.2112-0.0124-6.7324-0.29849zm-14.051-48.952c-1.2489-0.81215-2.2389-2.1499-2.9234-3.9506-0.74262-1.9533-0.68462-6.3361 0.11058-8.3554 1.1409-2.8972 3.5646-4.7712 5.6589-4.3754 3.1679 0.59863 5.4936 4.8492 5.156 9.4235-0.34803 4.716-2.6776 7.9375-5.7399 7.9375-0.85917 0-1.5243-0.19983-2.2621-0.67964zm35.721 0.18674c-2.7139-1.655-4.2454-5.8813-3.6106-9.964 0.72182-4.6429 3.5602-7.5552 6.693-6.8671 0.52554 0.11543 1.3924 0.72084 2.215 1.5469 1.0884 1.093 1.4652 1.7194 1.9353 3.2168 1.4723 4.6899-6e-3 10.417-3.1163 12.07-1.189 0.63197-3.0776 0.63064-4.1164-3e-3z" fill="#333"/>
  </g>
 </g>
</svg>
