<svg viewBox="0 0 173.67 180.53" xmlns="http://www.w3.org/2000/svg">
 <g transform="translate(-31.241 -80.345)">
  <g stroke-width=".35278">
   <path d="m97.904 156.11c-5.8007-0.73681-13.196-3.7562-17.815-7.274-6.8232-5.1958-11.808-12.605-14.031-20.856-0.82467-3.0607-0.91415-4.0157-0.91296-9.7433 0.0011-5.4142 0.11352-6.7571 0.76275-9.1123 4.1251-14.965 15.33-25.562 29.925-28.302 4.3083-0.80872 12.896-0.54352 16.779 0.5182 11.047 3.0203 19.867 10.296 24.698 20.373 7.8597 16.396 3.1214 36.087-11.326 47.069-3.0344 2.3065-9.3492 5.3931-12.909 6.31-5.1422 1.3243-10.124 1.6584-15.169 1.0175z" fill="#feda43"/>
   <path d="m31.709 232.62c-0.69394-5.2204-0.60232-16.382 0.1758-21.419 3.5347-22.88 15.981-42.004 35.066-53.879 2.7134-1.6884 3.2529-1.7953 4.1358-0.81976 0.95911 1.0598 7.0924 5.0663 9.883 6.456 3.3912 1.6888 7.8548 3.2203 12.213 4.1903 4.8266 1.0743 14.344 1.1641 19.008 0.17926 8.4413-1.7826 16.086-5.3968 22.295-10.54l1.6574-1.373 3.2156 1.959c4.152 2.5295 7.9496 5.4319 11.632 8.8904 3.282 3.0821 8.2304 8.5948 7.9588 8.8664-0.0965 0.0965-1.8858 0.61749-3.9763 1.1578-24.747 6.3959-40.474 31.459-35.354 56.342 0.37692 1.8318 0.6853 3.3925 0.6853 3.4682 0 0.0757-19.826 0.13756-44.058 0.13756h-44.058z" fill="#2b84fe"/>
   <path d="m159.46 260.26c-26.04-5.7406-38.269-35.603-23.658-57.769 3.7922-5.753 10.497-11.382 16.576-13.917 20.215-8.4292 43.021 1.4345 50.463 21.825 1.7207 4.7148 2.2305 8.3289 2.0274 14.373-0.14114 4.1992-0.36199 5.9471-1.0698 8.4667-3.6567 13.017-13.49 22.851-26.524 26.527-4.4048 1.2423-13.302 1.4892-17.815 0.49437zm7.9375-28.962c0.1903 0 3.2865 2.9375 6.8805 6.5277l6.5345 6.5277 7.5731-7.5967-6.5253-6.5182c-3.5889-3.585-6.5253-6.677-6.5253-6.8711s2.9375-3.2935 6.5277-6.8874l6.5277-6.5345-7.7663-7.7422-13.403 13.389-13.407-13.393-7.5778 7.5778 13.393 13.407-13.389 13.403 7.7422 7.7663 6.5345-6.5277c3.594-3.5902 6.6902-6.5277 6.8805-6.5277z" fill="#e53845"/>
  </g>
 </g>
</svg>
